<?xml version="1.0" encoding="UTF-8"?>
<svg xmlns="http://www.w3.org/2000/svg" viewBox="0 0 29.98 21.86">
  <defs>
    <style>
      .cls-1 {
        fill: #ff5748;
      }

      .cls-2 {
        fill: #212121;
      }
    </style>
  </defs>
  <g id="Layer_2" data-name="Layer 2">
    <path class="cls-1" d="m1.5,1.5c.82-.71,14.28-.86,15,0s.83,14.96,0,15.52-14.72.77-15.28,0S.23,2.6,1.5,1.5Z"/>
  </g>
  <g id="Layer_1" data-name="Layer 1">
    <path class="cls-2" d="m15.25,0c1.52,0,2.75,1.23,2.75,2.75v12.5c0,1.52-1.23,2.75-2.75,2.75H2.75c-1.52,0-2.75-1.23-2.75-2.75V2.75C0,1.23,1.23,0,2.75,0h12.5Zm0,1.5H2.75c-.69,0-1.25.56-1.25,1.25v12.5c0,.69.56,1.25,1.25,1.25h12.5c.69,0,1.25-.56,1.25-1.25V2.75c0-.69-.56-1.25-1.25-1.25ZM7,11.44l6.47-6.47c.29-.29.77-.29,1.06,0,.27.27.29.68.07.98l-.07.08-7,7c-.27.27-.68.29-.98.07l-.08-.07-3-3c-.29-.29-.29-.77,0-1.06.27-.27.68-.29.98-.07l.08.07,2.47,2.47,6.47-6.47-6.47,6.47Z"/>
  </g>
</svg>