<?xml version="1.0" encoding="UTF-8"?>
<svg id="Layer_1" data-name="Layer 1" xmlns="http://www.w3.org/2000/svg" viewBox="0 0 18 18">
  <defs>
    <style>
      .cls-1 {
        fill: #212121;
      }
    </style>
  </defs>
  <path class="cls-1" d="m2.75,0h12.5c1.52,0,2.75,1.23,2.75,2.75v12.5c0,1.52-1.23,2.75-2.75,2.75H2.75c-1.52,0-2.75-1.23-2.75-2.75V2.75C0,1.23,1.23,0,2.75,0Zm0,1.5c-.69,0-1.25.56-1.25,1.25v12.5c0,.69.56,1.25,1.25,1.25h12.5c.69,0,1.25-.56,1.25-1.25V2.75c0-.69-.56-1.25-1.25-1.25H2.75Z"/>
</svg>